<svg width="30" height="30" viewBox="0 0 30 30" fill="none" xmlns="http://www.w3.org/2000/svg">
<g clip-path="url(#clip0_2_388)">
<path d="M14.996 9.71204C12.2417 9.71204 9.99393 11.9598 9.99393 14.7141C9.99393 17.4684 12.2417 19.7161 14.996 19.7161C17.7503 19.7161 19.998 17.4684 19.998 14.7141C19.998 11.9598 17.7503 9.71204 14.996 9.71204ZM29.9983 14.7141C29.9983 12.6427 30.0171 10.5901 29.9008 8.52251C29.7844 6.12093 29.2366 3.98953 27.4804 2.23338C25.7205 0.473469 23.5929 -0.0706379 21.1913 -0.186964C19.1199 -0.303291 17.0673 -0.284528 14.9997 -0.284528C12.9284 -0.284528 10.8758 -0.303291 8.80815 -0.186964C6.40658 -0.0706379 4.27517 0.477222 2.51902 2.23338C0.759114 3.99328 0.215007 6.12093 0.0986802 8.52251C-0.0176462 10.5939 0.00111615 12.6465 0.00111615 14.7141C0.00111615 16.7817 -0.0176462 18.838 0.0986802 20.9056C0.215007 23.3072 0.762867 25.4386 2.51902 27.1948C4.27893 28.9547 6.40658 29.4988 8.80815 29.6151C10.8795 29.7314 12.9321 29.7127 14.9997 29.7127C17.0711 29.7127 19.1237 29.7314 21.1913 29.6151C23.5929 29.4988 25.7243 28.9509 27.4804 27.1948C29.2403 25.4349 29.7844 23.3072 29.9008 20.9056C30.0208 18.838 29.9983 16.7854 29.9983 14.7141ZM14.996 22.4104C10.7369 22.4104 7.29966 18.9731 7.29966 14.7141C7.29966 10.455 10.7369 7.01777 14.996 7.01777C19.255 7.01777 22.6923 10.455 22.6923 14.7141C22.6923 18.9731 19.255 22.4104 14.996 22.4104ZM23.0075 8.49999C22.0131 8.49999 21.2101 7.69696 21.2101 6.70256C21.2101 5.70816 22.0131 4.90513 23.0075 4.90513C24.0019 4.90513 24.8049 5.70816 24.8049 6.70256C24.8052 6.93869 24.7589 7.17255 24.6687 7.39076C24.5785 7.60897 24.4461 7.80723 24.2791 7.9742C24.1122 8.14116 23.9139 8.27355 23.6957 8.36378C23.4775 8.454 23.2436 8.50029 23.0075 8.49999Z" fill="white"/>
<path d="M14.996 9.71204C12.2417 9.71204 9.99393 11.9598 9.99393 14.7141C9.99393 17.4684 12.2417 19.7161 14.996 19.7161C17.7503 19.7161 19.998 17.4684 19.998 14.7141C19.998 11.9598 17.7503 9.71204 14.996 9.71204ZM29.9983 14.7141C29.9983 12.6427 30.0171 10.5901 29.9008 8.52251C29.7844 6.12093 29.2366 3.98953 27.4804 2.23338C25.7205 0.473469 23.5929 -0.0706379 21.1913 -0.186964C19.1199 -0.303291 17.0673 -0.284528 14.9997 -0.284528C12.9284 -0.284528 10.8758 -0.303291 8.80815 -0.186964C6.40658 -0.0706379 4.27517 0.477222 2.51902 2.23338C0.759114 3.99328 0.215007 6.12093 0.0986802 8.52251C-0.0176462 10.5939 0.00111615 12.6465 0.00111615 14.7141C0.00111615 16.7817 -0.0176462 18.838 0.0986802 20.9056C0.215007 23.3072 0.762867 25.4386 2.51902 27.1948C4.27893 28.9547 6.40658 29.4988 8.80815 29.6151C10.8795 29.7314 12.9321 29.7127 14.9997 29.7127C17.0711 29.7127 19.1237 29.7314 21.1913 29.6151C23.5929 29.4988 25.7243 28.9509 27.4804 27.1948C29.2403 25.4349 29.7844 23.3072 29.9008 20.9056C30.0208 18.838 29.9983 16.7854 29.9983 14.7141ZM14.996 22.4104C10.7369 22.4104 7.29966 18.9731 7.29966 14.7141C7.29966 10.455 10.7369 7.01777 14.996 7.01777C19.255 7.01777 22.6923 10.455 22.6923 14.7141C22.6923 18.9731 19.255 22.4104 14.996 22.4104ZM23.0075 8.49999C22.0131 8.49999 21.2101 7.69696 21.2101 6.70256C21.2101 5.70816 22.0131 4.90513 23.0075 4.90513C24.0019 4.90513 24.8049 5.70816 24.8049 6.70256C24.8052 6.93869 24.7589 7.17255 24.6687 7.39076C24.5785 7.60897 24.4461 7.80723 24.2791 7.9742C24.1122 8.14116 23.9139 8.27355 23.6957 8.36378C23.4775 8.454 23.2436 8.50029 23.0075 8.49999Z" fill="white"/>
<path d="M14.996 9.71194C12.2417 9.71194 9.99395 11.9597 9.99395 14.714C9.99395 17.4683 12.2417 19.716 14.996 19.716C17.7503 19.716 19.998 17.4683 19.998 14.714C19.998 11.9597 17.7503 9.71194 14.996 9.71194ZM14.996 22.4103C10.7369 22.4103 7.29968 18.973 7.29968 14.714C7.29968 10.4549 10.7369 7.01767 14.996 7.01767C19.255 7.01767 22.6923 10.4549 22.6923 14.714C22.6923 18.973 19.255 22.4103 14.996 22.4103ZM23.0075 8.49989C22.0131 8.49989 21.2101 7.69686 21.2101 6.70246C21.2101 5.70806 22.0131 4.90503 23.0075 4.90503C24.0019 4.90503 24.8049 5.70806 24.8049 6.70246C24.8052 6.93859 24.7589 7.17245 24.6687 7.39066C24.5785 7.60887 24.4461 7.80713 24.2791 7.9741C24.1122 8.14106 23.9139 8.27345 23.6957 8.36367C23.4775 8.4539 23.2436 8.50019 23.0075 8.49989Z" fill="#181818"/>
</g>
<defs>
<clipPath id="clip0_2_388">
<rect width="30" height="30" fill="white"/>
</clipPath>
</defs>
</svg>
