<svg width="30" height="30" viewBox="0 0 30 30" fill="none" xmlns="http://www.w3.org/2000/svg">
<g clip-path="url(#clip0_2_391)">
<path d="M10.4055 -0.285645H19.6095C28.0155 -0.285645 30 1.71386 30 10.1199V19.3239C30 27.7299 27.999 29.7144 19.5945 29.7144H10.3905C1.9845 29.7144 0 27.7134 0 19.3089V10.1049C0 1.71386 1.9995 -0.285645 10.4055 -0.285645Z" fill="white"/>
<path d="M23.3658 7.115C23.1199 6.91463 22.8231 6.78331 22.5071 6.73504C22.1911 6.68677 21.8676 6.72335 21.5711 6.84089L6.09292 12.962C5.762 13.0954 5.48032 13.3242 5.28524 13.6181C5.09016 13.912 4.99091 14.257 5.00065 14.6074C5.0104 14.9579 5.12868 15.2971 5.3398 15.5801C5.55092 15.8632 5.8449 16.0766 6.18275 16.1922L9.31361 17.2591L11.0583 22.9123C11.0822 22.9877 11.1168 23.0595 11.161 23.1255C11.168 23.1357 11.1775 23.1424 11.1844 23.1534C11.2353 23.2228 11.2967 23.2842 11.3666 23.3353C11.3861 23.3503 11.4063 23.3644 11.4271 23.3776C11.5089 23.4308 11.5994 23.4697 11.6948 23.4927L11.706 23.4935L11.7112 23.4961C11.7689 23.5074 11.8277 23.5131 11.8865 23.513L11.9021 23.5105C11.9905 23.509 12.0782 23.4942 12.1621 23.4665C12.1819 23.4597 12.1983 23.4495 12.2173 23.4411C12.28 23.4159 12.3395 23.3835 12.3944 23.3446C12.4381 23.3082 12.4819 23.2719 12.5257 23.2355L14.8594 20.7118L18.34 23.3531C18.6464 23.5868 19.0235 23.714 19.4118 23.7144C19.8189 23.7139 20.2133 23.5763 20.5291 23.3248C20.8448 23.0733 21.0627 22.723 21.1461 22.3328L23.9643 8.78171C24.0281 8.47684 24.0061 8.16074 23.9006 7.86718C23.7952 7.57362 23.6104 7.31364 23.3658 7.115ZM12.2286 17.5281C12.1089 17.645 12.0272 17.794 11.9936 17.9562L11.7259 19.2286L11.0488 17.0349L14.5597 15.2438L12.2286 17.5281ZM19.3989 22.0155L15.2851 18.8936C15.113 18.7635 14.8972 18.7017 14.6806 18.7205C14.464 18.7393 14.2626 18.8374 14.1166 18.9951L13.3686 19.8031L13.6329 18.545L19.7504 12.5525C19.8956 12.4095 19.9838 12.2203 19.9991 12.0192C20.0145 11.8181 19.956 11.6182 19.8341 11.4556C19.7123 11.293 19.5352 11.1783 19.3347 11.1323C19.1343 11.0864 18.9236 11.112 18.7408 11.2048L9.96138 15.682L6.74414 14.5289L22.2724 8.44498L19.3989 22.0155Z" fill="#181818"/>
</g>
<defs>
<clipPath id="clip0_2_391">
<rect width="30" height="30" fill="white"/>
</clipPath>
</defs>
</svg>
