<svg width="30" height="30" viewBox="0 0 30 30" fill="none" xmlns="http://www.w3.org/2000/svg">
<path d="M10.4055 0H19.6095C28.0155 0 30 1.9995 30 10.4055V19.6095C30 28.0155 27.999 30 19.5945 30H10.3905C1.9845 30 0 27.999 0 19.5945V10.3905C0 1.9995 1.9995 0 10.4055 0Z" fill="white"/>
<path d="M20.2228 16.5602C19.9673 16.4289 18.6946 15.8055 18.4579 15.7211C18.2212 15.632 18.0478 15.5898 17.8767 15.8523C17.7032 16.1125 17.211 16.6914 17.0563 16.8672C16.9063 17.0406 16.754 17.0617 16.4985 16.9328C14.9798 16.1734 13.9837 15.5781 12.9829 13.8602C12.7181 13.4031 13.2478 13.4359 13.7423 12.4492C13.8267 12.2758 13.7845 12.1281 13.7188 11.9969C13.6532 11.8656 13.1376 10.5953 12.922 10.0773C12.7134 9.57344 12.4978 9.64375 12.3407 9.63437C12.1907 9.625 12.0196 9.625 11.8462 9.625C11.6728 9.625 11.3938 9.69063 11.1571 9.94609C10.9204 10.2063 10.2524 10.832 10.2524 12.1023C10.2524 13.3727 11.1782 14.6031 11.3048 14.7766C11.436 14.95 13.1259 17.5563 15.7204 18.6789C17.361 19.3867 18.0032 19.4477 18.8235 19.3258C19.3228 19.2508 20.3517 18.7023 20.5649 18.0953C20.7782 17.4906 20.7782 16.9727 20.7149 16.8648C20.6517 16.75 20.4782 16.6844 20.2228 16.5602Z" fill="#181818"/>
<path d="M25.1845 10.4312C24.6548 9.17266 23.8954 8.04297 22.9275 7.07266C21.9595 6.10469 20.8298 5.34297 19.5689 4.81563C18.2798 4.27422 16.9111 4 15.5001 4H15.4533C14.0329 4.00703 12.6572 4.28828 11.3634 4.84141C10.1142 5.37578 8.99388 6.13516 8.03529 7.10312C7.0767 8.07109 6.32435 9.19609 5.80404 10.45C5.26498 11.7484 4.9931 13.1289 5.00013 14.5492C5.00716 16.1758 5.39623 17.7906 6.12513 19.2344V22.7969C6.12513 23.3922 6.60795 23.875 7.20326 23.875H10.7681C12.2119 24.6039 13.8267 24.993 15.4533 25H15.5025C16.9064 25 18.2681 24.7281 19.5501 24.1961C20.804 23.6734 21.9314 22.9234 22.897 21.9648C23.865 21.0063 24.6267 19.8859 25.1587 18.6367C25.7119 17.343 25.9931 15.9672 26.0001 14.5469C26.0072 13.1195 25.7306 11.7344 25.1845 10.4312ZM21.6431 20.6969C20.0001 22.3234 17.8204 23.2188 15.5001 23.2188H15.4603C14.047 23.2117 12.6431 22.8602 11.4033 22.1992L11.2064 22.0938H7.90638V18.7938L7.80091 18.5969C7.13998 17.357 6.78841 15.9531 6.78138 14.5398C6.77201 12.2031 7.66498 10.0094 9.30326 8.35703C10.9392 6.70469 13.1259 5.79062 15.4626 5.78125H15.5025C16.6744 5.78125 17.8111 6.00859 18.8822 6.45859C19.9275 6.89687 20.865 7.52734 21.6712 8.33359C22.4751 9.1375 23.1079 10.0773 23.5462 11.1227C24.0009 12.2055 24.2283 13.3539 24.2236 14.5398C24.2095 16.8742 23.2931 19.0609 21.6431 20.6969Z" fill="#181818"/>
</svg>
